<?xml version="1.0" encoding="utf-8"?>
<!-- Generator: Adobe Illustrator 16.0.0, SVG Export Plug-In . SVG Version: 6.00 Build 0)  -->
<!DOCTYPE svg PUBLIC "-//W3C//DTD SVG 1.1//EN" "http://www.w3.org/Graphics/SVG/1.1/DTD/svg11.dtd">
<svg version="1.1" id="Capa_1" xmlns="http://www.w3.org/2000/svg" xmlns:xlink="http://www.w3.org/1999/xlink" x="0px" y="0px"
	 width="1100px" height="1100px" viewBox="0 0 1100 1100" enable-background="new 0 0 1100 1100" xml:space="preserve">
<g>
	<path d="M690.479,363.13L694.391,195c-6.063-6.062-36.756,48.483-53.177,83.674c-16.422,35.19-25.807,55.522-25.807,55.522
		s-32.844-43.011-111.044-20.332l4.693-190.027c0,0-4.889-4.106-12.706,11.627c-4.834,9.73-175.759,334.41-227.372,490.419
		c-51.611,156.01-93.839,280.349-103.224,349.557h471.55l38.709-331.961l315.538-60.996c0,0,32.061-61.387,35.972-67.644
		L690.479,363.13z M603.678,435.466c-23.851-10.948-16.03-38.709-16.03-38.709s16.788-0.39,32.427,2.346
		c15.639,2.737,34.058,16.518,33.65,19.55C648.641,425.692,627.526,446.414,603.678,435.466z"/>
</g>
</svg>
